{"title":"3.Musketeers.2011.720p.BRRip.x264.Feel-Free","uid":6801116,"size":2220028492,"categoryP":"video","categoryS":"hd___movies","magnet":"?xt=urn:btih:68b475ba752be40bac5af6e2078d6fbf2031a8d5&amp;dn=3.Musketeers.2011.720p.BRRip.x264.Feel-Free&amp;tr=udp%3A%2F%2Ftracker.openbittorrent.com%3A80&amp;tr=udp%3A%2F%2Fopen.demonii.com%3A1337&amp;tr=udp%3A%2F%2Ftracker.coppersurfer.tk%3A6969&amp;tr=udp%3A%2F%2Fexodus.desync.com%3A6969","seeders":0,"leechers":1,"uploader":"Test_Verify","files":7,"time":1320686105,"description":"Genre:Action | Adventure | Thriller\nLanguage:English\nIMDb: http://www.imdb.com/title/tt1977681/\nSource:BluRay Thanks!\n\nFormat : MPEG-4\nFormat profile : Base Media\nCodec ID : isom\nFile size : 2.06 GiB\nDuration : 1h 27mn\nOverall bit rate : 3 392 Kbps\n\nVideo\nID : 1\nFormat : AVC\nFormat/Info : Advanced Video Codec\nFormat profile : &lt;a class=&quot;__cf_email__&quot; href=&quot;/cdn-cgi/l/email-protection&quot; data-cfemail=&quot;e2aa8b858aa2aed6ccd3&quot;&gt;[email&amp;#160;protected]&lt;/a&gt;&lt;script cf-hash='f9e31' type=&quot;text/javascript&quot;&gt;\n/* &lt;![CDATA[ */!function(){try{var t=&quot;currentScript&quot;in document?document.currentScript:function(){for(var t=document.getElementsByTagName(&quot;script&quot;),e=t.length;e--;)if(t[e].getAttribute(&quot;cf-hash&quot;))return t[e]}();if(t&amp;&amp;t.previousSibling){var e,r,n,i,c=t.previousSibling,a=c.getAttribute(&quot;data-cfemail&quot;);if(a){for(e=&quot;&quot;,r=parseInt(a.substr(0,2),16),n=2;a.length-n;n+=2)i=parseInt(a.substr(n,2),16)^r,e+=String.fromCharCode(i);e=document.createTextNode(e),c.parentNode.replaceChild(e,c)}}}catch(u){}}();/* ]]&gt; */&lt;/script&gt;\nFormat settings, CABAC : Yes\nFormat settings, ReFrames : 3 frames\nFormat settings, GOP : M=1, N=13\nCodec ID : avc1\nCodec ID/Info : Advanced Video Coding\nDuration : 1h 27mn\nBit rate mode : Variable\nBit rate : 3 000 Kbps\nMaximum bit rate : 15.7 Mbps\nWidth : 1 280 pixels\nHeight : 720 pixels\nDisplay aspect ratio : 16:9\nFrame rate mode : Constant\nFrame rate : 23.976 fps\nColor space : YUV\nChroma subsampling : 4:2:0\nBit depth : 8 bits\nScan type : Progressive\nBits/(Pixel*Frame) : 0.136\nStream size : 1.79 GiB (87%)\nWriting library : x264\n\n\nAudio\nID : 2\nFormat : AAC\nFormat/Info : Advanced Audio Codec\nFormat version : Version 4\nFormat profile : LC\nFormat settings, SBR : No\nCodec ID : 40\nDuration : 1h 27mn\nBit rate mode : Variable\nBit rate : 443 Kbps\nMaximum bit rate : 519 Kbps\nChannel(s) : 6 channels\nChannel positions : Front: L C R, Side: L R, LFE\nSampling rate : 48.0 KHz\nStream size : 276 MiB (13%)\n\n\nPlot:\nAlexandra D'Artagnan, junior member of NSA uncovers a conspiracy that the goal is to assassinate the American president..\n\n &lt;a href=&quot;\nhttp://img694.imageshack.us/img694/9803/vlcsnap00004i.png&quot; rel=&quot;nofollow&quot; target=&quot;_NEW&quot;&gt;\nhttp://img694.imageshack.us/img694/9803/vlcsnap00004i.png&lt;/a&gt;\n &lt;a href=&quot;\nhttp://img38.imageshack.us/img38/3330/vlcsnap00003gp.png&quot; rel=&quot;nofollow&quot; target=&quot;_NEW&quot;&gt;\nhttp://img38.imageshack.us/img38/3330/vlcsnap00003gp.png&lt;/a&gt;\n &lt;a href=&quot;\nhttp://img641.imageshack.us/img641/428/vlcsnap00002yy.png&quot; rel=&quot;nofollow&quot; target=&quot;_NEW&quot;&gt;\nhttp://img641.imageshack.us/img641/428/vlcsnap00002yy.png&lt;/a&gt;","torrent":{"xt":"urn:btih:68b475ba752be40bac5af6e2078d6fbf2031a8d5","amp;dn":"3.Musketeers.2011.720p.BRRip.x264.Feel-Free","amp;tr":["udp%3A%2F%2Ftracker.openbittorrent.com%3A80","udp%3A%2F%2Fopen.demonii.com%3A1337","udp%3A%2F%2Ftracker.coppersurfer.tk%3A6969","udp%3A%2F%2Fexodus.desync.com%3A6969"],"infoHash":"68b475ba752be40bac5af6e2078d6fbf2031a8d5","infoHashBuffer":{"type":"Buffer","data":[104,180,117,186,117,43,228,11,172,90,246,226,7,141,111,191,32,49,168,213]},"announce":[],"urlList":[]}}